<svg width="95" height="86" viewBox="0 0 95 86" fill="none" xmlns="http://www.w3.org/2000/svg">
<path d="M29.1359 58.5441L29.1928 60.7733H9.27773V58.3744H11.4605C14.1371 58.3744 16.3066 56.204 16.3066 53.5284V42.2126C17.57 42.5775 18.8362 42.9396 20.0996 43.2969V53.2364C20.0996 56.167 22.4758 58.545 25.4082 58.545H29.135L29.1359 58.5441Z" fill="#3F2D7D"/>
<path d="M73.3164 60.3829H57.2332C55.8333 60.3829 54.5055 59.7535 53.6193 58.6702L36.3552 37.5173C37.8243 35.3602 39.2887 33.2001 40.7521 31.0373L41.7567 29.5549C41.8136 29.4706 41.8572 29.3853 41.9112 29.2801C41.9396 29.2232 41.9728 29.1616 42.0117 29.0877L42.2989 28.5531L41.716 28.7171C41.6335 28.7398 41.5672 28.7578 41.5103 28.7739C41.4098 28.7995 41.3406 28.8175 41.2715 28.8431L39.6564 29.4289C37.1495 30.3331 34.5734 31.2647 32.0181 32.2002L20.1015 17.5966V36.5203C18.8381 36.9771 17.569 37.4349 16.3085 37.8917V15.2319C16.3085 14.4613 16.0004 13.7239 15.4535 13.1799L12.2813 10.0417C11.179 8.94989 9.69285 8.33856 8.14416 8.33856H6.21255V5.49329H24.7324L63.0641 54.589C64.5872 56.5434 66.6392 58.02 68.9736 58.8474L73.3164 60.3829Z" fill="url(#paint0_linear_153_1406)"/>
<path d="M33.5441 5.4942H57.0285V7.85136H53.7046C51.8128 7.85136 50.2783 9.38489 50.2783 11.2776V29.8857L67.8741 12.2899C68.6276 11.5364 68.8229 10.3886 68.3613 9.42755L68.2229 9.13942C67.9263 8.52335 67.3036 8.13096 66.6192 8.13096H63.9446V5.49515H80.4002V7.90728H79.5254C78.5141 7.90728 77.5445 8.30915 76.8298 9.02378L54.2667 31.587C60.161 38.8111 66.0553 46.0342 71.9496 53.2583C73.9059 55.3121 75.8119 56.5481 77.1369 57.275C78.9444 58.2655 80.5471 58.7886 81.9763 59.255C83.7563 59.836 85.2927 60.1904 86.4253 60.4122C82.8692 60.3753 79.313 60.3383 75.7569 60.3004C74.667 59.9677 73.431 59.527 72.1032 58.9337C70.8104 58.3564 69.5697 57.802 68.1149 56.7585C66.8202 55.8296 65.971 54.9529 65.2004 54.1511C63.9929 52.8934 63.0916 51.7134 62.4527 50.7902C55.0988 41.1303 47.7449 31.4713 40.391 21.8114V10.2028C40.391 9.67113 40.1758 9.15174 39.7711 8.80674C39.7682 8.80485 39.7664 8.802 39.7635 8.80011C38.6309 7.8381 37.2651 7.76322 36.6813 7.76796C35.6264 7.78691 34.5705 7.80492 33.5157 7.82388L33.5431 5.49515L33.5441 5.4942Z" fill="url(#paint1_linear_153_1406)"/>
<g filter="url(#filter0_i_153_1406)">
<path d="M41.9861 49.0747L37.304 47.7289C35.0207 47.0739 32.7299 46.4143 30.4239 45.7536L30.2438 45.7025L23.3894 55.8088L23.2558 51.7665C23.1733 49.306 23.0889 46.763 23.0245 44.2618C23.0112 43.7813 22.8169 43.532 22.3516 43.3993C21.6066 43.1889 20.8616 42.9757 20.1195 42.7624C18.8532 42.4032 17.5898 42.043 16.3264 41.6781C15.4374 41.4241 14.5522 41.1692 13.666 40.9152L11.4775 40.2858C11.4292 40.2726 11.3827 40.2602 11.3363 40.2451L13.067 39.6186C14.1427 39.2281 15.2317 38.8329 16.3264 38.4395C17.587 37.9827 18.8532 37.523 20.1195 37.0681C20.7593 36.8368 21.4009 36.6084 22.0378 36.38C22.4587 36.2283 22.7335 36.0075 22.7136 35.417C22.6008 32.4608 22.5032 29.4506 22.4084 26.5409L22.3212 23.8463L23.9827 25.9779C25.775 28.2744 27.627 30.6468 29.4401 32.9897C29.7434 33.383 30.0562 33.4721 30.5263 33.3006C31.1423 33.075 31.7613 32.8485 32.3802 32.6229C34.8795 31.7083 37.3987 30.7994 39.8488 29.9132L41.2591 29.4023L40.3445 30.751C38.9114 32.8703 37.4755 34.9858 36.0377 37.1022C35.632 37.7002 35.2264 38.2964 34.8179 38.8945C34.5942 39.2262 34.5127 39.5285 34.8406 39.9446C36.6566 42.2487 38.4925 44.6011 40.2677 46.8739L41.9861 49.0747Z" fill="url(#paint2_linear_153_1406)"/>
</g>
<path d="M16.3815 64.5396V64.6176V64.8417C16.3815 64.9586 16.3815 65.0853 16.3815 65.2217C16.3815 65.3582 16.3815 65.4946 16.3815 65.631C16.3815 66.3586 16.3783 67.1609 16.3718 68.0379C16.3718 68.9084 16.3718 69.7075 16.3718 70.4351C16.3718 70.578 16.3718 70.7177 16.3718 70.8541C16.3718 70.984 16.3718 71.1075 16.3718 71.2244V71.4485V71.5265H14.9198C14.608 71.1627 14.3384 70.8476 14.111 70.5813L12.3375 68.5057L10.8661 66.7809C10.8661 67.1642 10.8661 67.5799 10.8661 68.0282V70.4351V71.2244V71.4485V71.5265H9.41412V71.4485V71.2244V70.4351C9.41412 70.0388 9.41412 69.636 9.41412 69.2268C9.41412 68.8175 9.41412 68.418 9.41412 68.0282C9.41412 67.6579 9.41412 67.2648 9.41412 66.8491C9.41412 66.4333 9.41412 66.0273 9.41412 65.631V64.8417V64.6176V64.5396H10.8661C10.9505 64.6371 11.022 64.7215 11.0804 64.793L11.6651 65.4751L13.4386 67.5604L14.9198 69.3047C14.9198 69.0773 14.9231 68.6551 14.9296 68.0379C14.9296 67.1609 14.9296 66.3586 14.9296 65.631C14.9296 65.4946 14.9296 65.3582 14.9296 65.2217C14.9296 65.0853 14.9296 64.9586 14.9296 64.8417V64.6176V64.5396H16.3815ZM24.9846 71.5265H23.3475C23.2305 71.2861 23.1038 71.0295 22.9674 70.7567H19.7322L20.4436 69.3145C21.0477 69.3145 21.6519 69.3145 22.2561 69.3145L21.7493 68.2815L20.9795 66.7224L20.2194 68.2815L19.0696 70.63C18.7772 71.2212 18.6311 71.52 18.6311 71.5265H17.0037C17.1661 71.2017 17.2571 71.0198 17.2766 70.9808L17.3838 70.7567L17.7638 69.9868L18.9137 67.6384L20.0635 65.2899L20.4338 64.5396H20.4436H21.5252C21.6227 64.741 21.7461 64.9911 21.8955 65.2899L23.0551 67.6384L24.2147 69.9868L24.5948 70.7567C24.6402 70.8476 24.676 70.9223 24.702 70.9808C24.7215 71.0198 24.8157 71.2017 24.9846 71.5265ZM27.592 67.2778L30.7687 64.5493L32.971 64.5299L29.6481 67.4727C29.6676 67.4922 29.6838 67.5117 29.6968 67.5312L30.0476 67.921C30.1841 68.0834 30.5121 68.4667 31.0318 69.0708C31.5581 69.6685 32.0485 70.2272 32.5033 70.7469L33.1854 71.5362H31.2267C30.7785 71.0035 30.3627 70.5163 29.9794 70.0745C29.7456 69.8017 29.2746 69.2527 28.5665 68.4277L27.5823 67.2876H27.592L27.5823 67.2778H27.592ZM27.1145 64.5396V64.6176V64.8319V65.631C27.1145 66.0273 27.1145 66.4333 27.1145 66.8491C27.1145 67.2648 27.1145 67.6579 27.1145 68.0282C27.1145 68.4115 27.1145 68.811 27.1145 69.2268C27.1145 69.636 27.1145 70.0388 27.1145 70.4351V71.2244V71.4485V71.5265H25.6626V71.4485V71.2244V70.4351C25.6626 70.0388 25.6626 69.636 25.6626 69.2268C25.6626 68.811 25.6626 68.4115 25.6626 68.0282C25.6626 67.6579 25.6626 67.2648 25.6626 66.8491C25.6626 66.4333 25.6626 66.0273 25.6626 65.631V64.8319V64.6176V64.5396H27.1145Z" fill="#2D539E"/>
<g filter="url(#filter1_i_153_1406)">
<path d="M39.5224 64.4848L41.9515 67.5471L45.6145 66.1832L43.4527 69.4396L45.8817 72.5019L42.1166 71.4522L39.9548 74.7087L39.7897 70.8035L36.0246 69.7538L39.6876 68.39L39.5224 64.4848Z" fill="#176CB5"/>
</g>
<path d="M52.4486 67.424C53.1242 67.4175 53.5757 67.4143 53.8031 67.4143C54.3553 67.4273 54.8068 67.5474 55.1576 67.7748C55.5084 68.0022 55.6773 68.353 55.6643 68.8272C55.6578 69.2365 55.6448 69.6913 55.6253 70.1915C55.5929 71.075 54.9302 71.52 53.6374 71.5265C53.2477 71.5265 52.637 71.5265 51.8054 71.5265C50.9739 71.533 50.2398 71.5362 49.6032 71.5362H48.6385V70.0551C51.1331 70.0551 52.6987 70.0486 53.3354 70.0356C53.6147 70.0356 53.8096 70.0031 53.92 69.9381C54.037 69.8732 54.0987 69.7367 54.1052 69.5288L54.1247 69.3632C54.1312 69.1423 54.0727 68.9831 53.9493 68.8857C53.8258 68.7818 53.6342 68.7265 53.3743 68.72C52.8611 68.72 52.3576 68.7168 51.8639 68.7103C51.2403 68.7038 50.8115 68.7006 50.5776 68.7006C50.2268 68.7006 49.9085 68.6551 49.6227 68.5641C49.3368 68.4667 49.0964 68.3108 48.9016 68.0964C48.7132 67.8755 48.619 67.6027 48.619 67.2778C48.6255 66.8751 48.6352 66.4236 48.6482 65.9233C48.6742 65.0203 49.3141 64.5623 50.5679 64.5493C51.211 64.5429 52.4453 64.5396 54.2708 64.5396H55.6253L55.6448 66.0598C53.1112 66.0598 51.5423 66.0565 50.9382 66.05C50.6718 66.0435 50.4769 66.076 50.3535 66.1475C50.2366 66.2189 50.1781 66.3586 50.1781 66.5665L50.1586 66.7321C50.1521 66.953 50.2138 67.1252 50.3438 67.2486C50.4802 67.3655 50.6751 67.424 50.9284 67.424C51.1623 67.424 51.669 67.424 52.4486 67.424ZM64.276 71.5265H62.6389C62.5219 71.2861 62.3952 71.0295 62.2588 70.7567H59.0236L59.735 69.3145C60.3391 69.3145 60.9433 69.3145 61.5475 69.3145L61.0407 68.2815L60.2709 66.7224L59.5108 68.2815L58.361 70.63C58.0686 71.2212 57.9225 71.52 57.9225 71.5265H56.2951C56.4575 71.2017 56.5485 71.0198 56.568 70.9808L56.6752 70.7567L57.0552 69.9868L58.2051 67.6384L59.3549 65.2899L59.7252 64.5396H59.735H60.8166C60.9141 64.741 61.0375 64.9911 61.1869 65.2899L62.3465 67.6384L63.5061 69.9868L63.8862 70.7567C63.9316 70.8476 63.9674 70.9223 63.9934 70.9808C64.0129 71.0198 64.1071 71.2017 64.276 71.5265ZM64.1444 64.5396H64.2224H64.4367H65.2066C65.5964 64.5396 65.9926 64.5396 66.3954 64.5396C66.8047 64.5396 67.1912 64.5396 67.555 64.5396C67.9253 64.5396 68.3119 64.5396 68.7146 64.5396C69.1174 64.5396 69.5104 64.5396 69.8937 64.5396H70.6636H70.8779H70.9559V65.9916H70.8779H70.6636H69.8937C69.6599 65.9916 69.1174 65.9916 68.2664 65.9916C68.2664 66.6282 68.2664 67.3103 68.2664 68.0379C68.2664 68.9084 68.2664 69.7075 68.2664 70.4351C68.2599 70.5715 68.2566 70.7079 68.2566 70.8444C68.2566 70.9808 68.2566 71.1075 68.2566 71.2244V71.4485V71.5265H66.8047V71.4485V71.2244C66.8047 71.1075 66.8047 70.9808 66.8047 70.8444C66.8047 70.7079 66.8079 70.5715 66.8144 70.4351C66.8144 69.7075 66.8144 68.9052 66.8144 68.0282C66.8144 67.2291 66.8144 66.5502 66.8144 65.9916C66.0154 65.9916 65.4794 65.9916 65.2066 65.9916H64.4367H64.2224H64.1444V64.5396ZM73.6877 67.2778C73.8891 67.2778 74.1262 67.2811 74.3991 67.2876H75.4612C75.9485 67.2941 76.2765 67.2973 76.4455 67.2973C76.7118 67.2973 76.9034 67.2584 77.0204 67.1804C77.1438 67.0959 77.2023 66.9465 77.1958 66.7321L77.1763 66.5665C77.1763 66.3586 77.1178 66.2189 77.0009 66.1475C76.884 66.076 76.6891 66.0435 76.4162 66.05C76.2863 66.0565 75.864 66.0598 75.1494 66.0598C74.4413 66.0533 74.0775 66.05 74.058 66.05C73.6877 66.05 73.3694 66.0533 73.1031 66.0598C73.1031 66.2806 73.1031 66.5697 73.1031 66.927C73.1031 67.2778 73.1031 67.6449 73.1031 68.0282C73.1031 68.4115 73.1031 68.811 73.1031 69.2268C73.1031 69.636 73.1031 70.0388 73.1031 70.4351V71.2244V71.4485V71.5265H71.6511V71.4485V71.2244V70.4351C71.6511 70.0388 71.6511 69.636 71.6511 69.2268C71.6511 68.811 71.6511 68.4115 71.6511 68.0282C71.6511 67.6579 71.6511 67.2648 71.6511 66.8491C71.6511 66.4333 71.6511 66.0273 71.6511 65.631V64.8319V64.6176V64.5396H73.1031C74.9155 64.5396 76.1434 64.5429 76.7865 64.5493C78.0403 64.5623 78.6802 65.0203 78.7062 65.9233C78.7192 66.4236 78.7289 66.8751 78.7354 67.2778C78.7354 67.7521 78.56 68.1029 78.2092 68.3303C77.8584 68.5576 77.4069 68.6713 76.8547 68.6713C76.8093 68.6713 76.7508 68.6713 76.6793 68.6713C77.3095 69.3924 78.141 70.3474 79.1739 71.5362H77.2153C76.767 71.0035 76.3513 70.5163 75.968 70.0745C74.4023 68.262 73.6033 67.3298 73.5708 67.2778H73.6877ZM87.7742 71.5265H86.1371C86.0201 71.2861 85.8935 71.0295 85.757 70.7567H82.5218L83.2332 69.3145C83.8373 69.3145 84.4415 69.3145 85.0457 69.3145L84.539 68.2815L83.7691 66.7224L83.0091 68.2815L81.8592 70.63C81.5669 71.2212 81.4207 71.52 81.4207 71.5265H79.7933C79.9557 71.2017 80.0467 71.0198 80.0662 70.9808L80.1734 70.7567L80.5534 69.9868L81.7033 67.6384L82.8531 65.2899L83.2234 64.5396H83.2332H84.3148C84.4123 64.741 84.5357 64.9911 84.6851 65.2899L85.8447 67.6384L87.0043 69.9868L87.3844 70.7567C87.4299 70.8476 87.4656 70.9223 87.4916 70.9808C87.5111 71.0198 87.6053 71.2017 87.7742 71.5265Z" fill="#2D539E"/>
<path d="M47.9747 73.5821H48.5479C48.598 73.6867 48.6492 73.7913 48.7015 73.896L49.1075 74.7183L49.3771 75.2608L49.6432 74.7183L50.0458 73.896L50.1994 73.5786H50.7692C50.7123 73.6924 50.6805 73.7561 50.6736 73.7697C50.6623 73.7902 50.6498 73.8164 50.6361 73.8482L50.6327 73.8516V73.855L50.6293 73.8584L50.6259 73.8618V73.8653L50.6225 73.8687V73.8755L50.6191 73.8789V73.8823L50.6156 73.8857V73.8891L50.6122 73.8926L50.6088 73.896V73.8994V73.9028L50.6054 73.9062V73.9096L50.602 73.913V73.9164L50.5986 73.9199V73.9233L50.5952 73.9267V73.9301L50.5918 73.9335V73.9369L50.5883 73.9403V73.9437L50.5849 73.9471V73.9506L50.5815 73.954V73.9574L50.5781 73.9608V73.9642L50.5747 73.9676V73.971L50.5713 73.9744V73.9779L50.5679 73.9813V73.9847L50.5645 73.9881V73.9915V73.9949H50.561V73.9983V74.0017H50.5576V74.0052V74.0086L50.5542 74.012L50.5508 74.0154V74.0188V74.0222H50.5474V74.0256V74.029L50.544 74.0324V74.0359H50.5406V74.0393V74.0427L50.5372 74.0461V74.0495H50.5338V74.0529V74.0563L50.5303 74.0597V74.0632L50.5269 74.0666V74.07L50.5235 74.0734V74.0768L50.5201 74.0802V74.0836L50.5167 74.087V74.0905L50.5133 74.0939V74.0973L50.5099 74.1007V74.1041L50.5065 74.1075V74.1109L50.503 74.1143V74.1178L50.1004 74.9401L49.6978 75.7624C49.65 75.8624 49.6079 75.95 49.5716 76.0251V76.0285H49.186C49.1519 75.958 49.1086 75.8693 49.0563 75.7624L48.6503 74.9401L48.2443 74.1212L48.1078 73.8482V73.8448L48.1044 73.838L48.101 73.8346L48.0975 73.8277V73.8243L48.0941 73.8209L48.0907 73.8175V73.8107L48.0873 73.8073V73.8038L48.0839 73.8004V73.797L48.0805 73.7936V73.7902L48.0771 73.7868V73.7834L48.0737 73.78L48.0702 73.7731C48.0088 73.6457 47.977 73.5821 47.9747 73.5821ZM50.9043 73.5821H51.4127C51.4991 73.5821 51.6061 73.5821 51.7334 73.5821C51.8631 73.5821 51.9962 73.5821 52.1326 73.5821C52.2691 73.5821 52.4102 73.5821 52.5557 73.5821C52.7013 73.5821 52.8435 73.5821 52.9822 73.5821H53.2586H53.3371H53.3644V74.0905H53.3371H53.2586H52.9822C52.8435 74.0905 52.7013 74.0905 52.5557 74.0905C52.4102 74.0905 52.2691 74.0905 52.1326 74.0905H51.4127C51.4127 74.1769 51.4127 74.2838 51.4127 74.4112C51.4127 74.5363 51.4127 74.6671 51.4127 74.8036C51.4127 74.9423 51.4127 75.0754 51.4127 75.2028C51.4127 75.3302 51.4127 75.4359 51.4127 75.5201C51.5014 75.5201 51.6095 75.5201 51.7368 75.5201C51.8665 75.5201 52.0007 75.5201 52.1395 75.5201C52.2737 75.5201 52.4136 75.5201 52.5592 75.5201C52.7047 75.5201 52.848 75.5201 52.9891 75.5201H53.2689H53.3473H53.3746V76.0285H53.3473H53.2689H52.9891C52.848 76.0285 52.7036 76.0285 52.5557 76.0285C52.4102 76.0285 52.2703 76.0285 52.1361 76.0285C51.9996 76.0285 51.8665 76.0285 51.7368 76.0285C51.6095 76.0285 51.5014 76.0285 51.4127 76.0285H50.9043H50.9009V75.5201H50.9043C50.9043 75.4359 50.9043 75.3302 50.9043 75.2028C50.9043 75.0754 50.9043 74.9423 50.9043 74.8036C50.9043 74.6739 50.9043 74.5363 50.9043 74.3907C50.9043 74.2451 50.9043 74.103 50.9043 73.9642V73.8755L50.9009 73.5821H50.9043ZM52.3783 74.5511C52.3806 74.5511 52.384 74.5511 52.3886 74.5511C52.3931 74.5511 52.3988 74.5511 52.4056 74.5511C52.4261 74.5511 52.45 74.5511 52.4773 74.5511C52.541 74.5511 52.6115 74.5522 52.6888 74.5545C52.7662 74.5545 52.8367 74.5545 52.9004 74.5545C52.9277 74.5545 52.9515 74.5545 52.972 74.5545C52.9857 74.5545 52.9948 74.5545 52.9993 74.5545L52.9959 75.0629C52.9936 75.0629 52.9845 75.0629 52.9686 75.0629C52.9504 75.0629 52.9277 75.0629 52.9004 75.0629C52.8344 75.0629 52.7627 75.0629 52.6854 75.0629C52.6081 75.0606 52.5375 75.0595 52.4739 75.0595C52.4466 75.0595 52.4238 75.0595 52.4056 75.0595C52.3988 75.0595 52.392 75.0595 52.3851 75.0595C52.3829 75.0595 52.3806 75.0595 52.3783 75.0595H52.351L51.8665 74.5477C52.0621 74.5499 52.2327 74.5511 52.3783 74.5511ZM55.96 73.5821V73.6094V73.6878C55.96 73.7288 55.96 73.7731 55.96 73.8209C55.96 73.8687 55.96 73.9164 55.96 73.9642C55.96 74.219 55.9589 74.4999 55.9566 74.807C55.9566 75.1118 55.9566 75.3916 55.9566 75.6464C55.9566 75.6964 55.9566 75.7453 55.9566 75.7931C55.9566 75.8386 55.9566 75.8818 55.9566 75.9227V76.0012V76.0285H55.4482C55.339 75.9011 55.2446 75.7908 55.165 75.6975L54.544 74.9708L54.0288 74.3668C54.0288 74.501 54.0288 74.6466 54.0288 74.8036V75.6464V75.9227V76.0012V76.0285H53.5204V76.0012V75.9227V75.6464C53.5204 75.5076 53.5204 75.3666 53.5204 75.2233C53.5204 75.08 53.5204 74.9401 53.5204 74.8036C53.5204 74.6739 53.5204 74.5363 53.5204 74.3907C53.5204 74.2451 53.5204 74.103 53.5204 73.9642V73.6878V73.6094V73.5821H54.0288C54.0583 73.6162 54.0834 73.6457 54.1038 73.6708L54.3086 73.9096L54.9295 74.6398L55.4482 75.2506C55.4482 75.1709 55.4493 75.0231 55.4516 74.807C55.4516 74.4999 55.4516 74.219 55.4516 73.9642C55.4516 73.9164 55.4516 73.8687 55.4516 73.8209C55.4516 73.7731 55.4516 73.7288 55.4516 73.6878V73.6094V73.5821H55.96ZM56.0857 73.5821H56.113H56.1881H56.4576C56.5941 73.5821 56.7329 73.5821 56.8739 73.5821C57.0172 73.5821 57.1526 73.5821 57.2799 73.5821C57.4096 73.5821 57.545 73.5821 57.686 73.5821C57.827 73.5821 57.9646 73.5821 58.0988 73.5821H58.3684H58.4435H58.4708V74.0905H58.4435H58.3684H58.0988C58.017 74.0905 57.827 74.0905 57.529 74.0905C57.529 74.3134 57.529 74.5522 57.529 74.807C57.529 75.1118 57.529 75.3916 57.529 75.6464C57.5268 75.6941 57.5256 75.7419 57.5256 75.7897C57.5256 75.8374 57.5256 75.8818 57.5256 75.9227V76.0012V76.0285H57.0172V76.0012V75.9227C57.0172 75.8818 57.0172 75.8374 57.0172 75.7897C57.0172 75.7419 57.0184 75.6941 57.0206 75.6464C57.0206 75.3916 57.0206 75.1107 57.0206 74.8036C57.0206 74.5238 57.0206 74.2861 57.0206 74.0905C56.7408 74.0905 56.5532 74.0905 56.4576 74.0905H56.1881H56.113H56.0857V73.5821ZM61.0617 73.5821V73.6025V73.6605C61.0617 73.6901 61.0617 73.7231 61.0617 73.7595C61.0617 73.7936 61.0617 73.8277 61.0617 73.8618C61.0617 74.0506 61.0605 74.2576 61.0583 74.4828C61.0583 74.7058 61.0583 74.9105 61.0583 75.097C61.0583 75.1334 61.0583 75.1687 61.0583 75.2028C61.0583 75.2369 61.0583 75.2688 61.0583 75.2983V75.3563V75.3768C61.0583 75.4905 61.0503 75.5849 61.0344 75.66C61.0185 75.7351 60.9889 75.8022 60.9457 75.8613C60.9047 75.9182 60.8456 75.9603 60.7682 75.9876C60.6909 76.0149 60.592 76.0285 60.4714 76.0285H60.468H60.4577H60.4168H60.2701C60.1973 76.0285 60.1222 76.0285 60.0449 76.0285C59.9698 76.0285 59.897 76.0285 59.8265 76.0285C59.7583 76.0285 59.6855 76.0285 59.6081 76.0285C59.5308 76.0285 59.4557 76.0285 59.3829 76.0285H59.2362H59.2089C59.2067 76.0285 59.2032 76.0285 59.1987 76.0285C59.0781 76.0285 58.9792 76.0149 58.9018 75.9876C58.8245 75.9603 58.7642 75.9182 58.721 75.8613C58.6801 75.8022 58.6516 75.7351 58.6357 75.66C58.6198 75.5849 58.6118 75.4905 58.6118 75.3768C58.6118 75.3745 58.6118 75.3723 58.6118 75.37V75.3495V75.2949V75.0902V74.476C58.6118 74.36 58.6118 74.2508 58.6118 74.1485C58.6118 74.0461 58.6118 73.9506 58.6118 73.8618V73.6571V73.6025V73.5821H59.1202V73.6025V73.6571V73.8618C59.1202 73.9642 59.1202 74.0688 59.1202 74.1758C59.1202 74.2804 59.1202 74.3805 59.1202 74.476C59.1202 74.5738 59.1202 74.6762 59.1202 74.7831C59.1202 74.8877 59.1202 74.9901 59.1202 75.0902V75.2949V75.3495V75.3563C59.1202 75.3609 59.1202 75.3666 59.1202 75.3734C59.1202 75.4303 59.1282 75.4689 59.1441 75.4894C59.16 75.5099 59.1873 75.5201 59.226 75.5201H59.2328H59.2362H59.3829H59.8265C59.897 75.5201 59.9698 75.5201 60.0449 75.5201C60.1222 75.5201 60.1973 75.5201 60.2701 75.5201H60.4168H60.4305C60.4327 75.5201 60.4361 75.5201 60.4407 75.5201C60.4816 75.5201 60.5101 75.511 60.526 75.4928C60.5419 75.4723 60.5499 75.4325 60.5499 75.3734C60.5499 75.3688 60.5499 75.3654 60.5499 75.3632V75.3563V75.2983C60.5499 75.2688 60.5499 75.2369 60.5499 75.2028C60.5499 75.1664 60.5499 75.1311 60.5499 75.097C60.5499 74.9105 60.5499 74.7046 60.5499 74.4794C60.5521 74.2542 60.5533 74.0484 60.5533 73.8618C60.5533 73.8277 60.5533 73.7936 60.5533 73.7595C60.5533 73.7231 60.5533 73.6901 60.5533 73.6605V73.6025V73.5821H61.0617ZM61.0544 73.5821H61.2147H61.2693H61.4604C61.5445 73.5821 61.6185 73.5821 61.6822 73.5821C61.689 73.5821 61.6958 73.5821 61.7026 73.5821C62.3919 73.5821 62.7786 73.5821 62.8627 73.5821H62.8832C62.9128 73.5821 62.9412 73.5821 62.9685 73.5821C63.4257 73.5889 63.6589 73.7504 63.668 74.0666C63.6725 74.2417 63.6759 74.3998 63.6782 74.5408C63.6782 74.7069 63.6168 74.8297 63.494 74.9093C63.3711 74.989 63.213 75.0288 63.0197 75.0288C63.0038 75.0288 62.9833 75.0288 62.9583 75.0288C63.1789 75.2813 63.4701 75.6156 63.8318 76.0319H63.1459C62.989 75.8454 62.8434 75.6748 62.7092 75.5201C62.161 74.8855 61.8812 74.559 61.8698 74.5408H61.9108C61.9813 74.5408 62.0643 74.542 62.1599 74.5443H62.5318C62.7024 74.5465 62.8172 74.5477 62.8764 74.5477C62.9697 74.5477 63.0368 74.534 63.0777 74.5067C63.1209 74.4772 63.1414 74.4248 63.1391 74.3498L63.1323 74.2918C63.1323 74.219 63.1118 74.1701 63.0709 74.145C63.0299 74.12 62.9617 74.1087 62.8662 74.1109C62.8207 74.1132 62.6728 74.1143 62.4226 74.1143C62.1746 74.1121 62.0473 74.1109 62.0404 74.1109C61.9563 74.1109 61.8778 74.1109 61.805 74.1109L61.5116 74.1143L61.0544 73.5821ZM63.9668 73.5821H64.4752C64.5616 73.5821 64.6685 73.5821 64.7959 73.5821C64.9255 73.5821 65.0586 73.5821 65.1951 73.5821C65.3316 73.5821 65.4726 73.5821 65.6182 73.5821C65.7638 73.5821 65.9059 73.5821 66.0447 73.5821H66.3211H66.3996H66.4268V74.0905H66.3996H66.3211H66.0447C65.9059 74.0905 65.7638 74.0905 65.6182 74.0905C65.4726 74.0905 65.3316 74.0905 65.1951 74.0905H64.4752C64.4752 74.1769 64.4752 74.2838 64.4752 74.4112C64.4752 74.5363 64.4752 74.6671 64.4752 74.8036C64.4752 74.9423 64.4752 75.0754 64.4752 75.2028C64.4752 75.3302 64.4752 75.4359 64.4752 75.5201C64.5639 75.5201 64.6719 75.5201 64.7993 75.5201C64.929 75.5201 65.0632 75.5201 65.2019 75.5201C65.3361 75.5201 65.476 75.5201 65.6216 75.5201C65.7672 75.5201 65.9105 75.5201 66.0515 75.5201H66.3313H66.4098H66.4371V76.0285H66.4098H66.3313H66.0515C65.9105 76.0285 65.766 76.0285 65.6182 76.0285C65.4726 76.0285 65.3327 76.0285 65.1985 76.0285C65.062 76.0285 64.929 76.0285 64.7993 76.0285C64.6719 76.0285 64.5639 76.0285 64.4752 76.0285H63.9668H63.9633V75.5201H63.9668C63.9668 75.4359 63.9668 75.3302 63.9668 75.2028C63.9668 75.0754 63.9668 74.9423 63.9668 74.8036C63.9668 74.6739 63.9668 74.5363 63.9668 74.3907C63.9668 74.2451 63.9668 74.103 63.9668 73.9642V73.8755L63.9633 73.5821H63.9668ZM65.4408 74.5511C65.443 74.5511 65.4465 74.5511 65.451 74.5511C65.4556 74.5511 65.4612 74.5511 65.4681 74.5511C65.4885 74.5511 65.5124 74.5511 65.5397 74.5511C65.6034 74.5511 65.6739 74.5522 65.7513 74.5545C65.8286 74.5545 65.8991 74.5545 65.9628 74.5545C65.9901 74.5545 66.014 74.5545 66.0345 74.5545C66.0481 74.5545 66.0572 74.5545 66.0618 74.5545L66.0583 75.0629C66.0561 75.0629 66.047 75.0629 66.0311 75.0629C66.0129 75.0629 65.9901 75.0629 65.9628 75.0629C65.8968 75.0629 65.8252 75.0629 65.7478 75.0629C65.6705 75.0606 65.6 75.0595 65.5363 75.0595C65.509 75.0595 65.4863 75.0595 65.4681 75.0595C65.4612 75.0595 65.4544 75.0595 65.4476 75.0595C65.4453 75.0595 65.443 75.0595 65.4408 75.0595H65.4135L64.929 74.5477C65.1246 74.5499 65.2952 74.5511 65.4408 74.5511ZM67.7054 75.0424C67.487 75.0401 67.3369 75.039 67.255 75.039C67.1322 75.039 67.0207 75.0231 66.9206 74.9912C66.8205 74.9571 66.7364 74.9025 66.6681 74.8275C66.6022 74.7501 66.5692 74.6546 66.5692 74.5408C66.5714 74.3998 66.5749 74.2417 66.5794 74.0666C66.5885 73.7504 66.8126 73.59 67.2516 73.5855C67.263 73.5855 67.8567 73.5855 69.0327 73.5855L69.0361 74.128C68.1444 74.1189 67.5928 74.1132 67.3812 74.1109C67.288 74.1087 67.2197 74.12 67.1765 74.145C67.1356 74.1701 67.1151 74.219 67.1151 74.2918L67.1083 74.3498C67.106 74.4271 67.1276 74.4874 67.1731 74.5306C67.2209 74.5716 67.2891 74.592 67.3778 74.592C67.4597 74.592 67.6371 74.592 67.9101 74.592C68.1467 74.5898 68.3048 74.5886 68.3844 74.5886C68.5777 74.5932 68.7358 74.6352 68.8587 74.7149C68.9815 74.7945 69.0406 74.9173 69.0361 75.0834C69.0338 75.2267 69.0293 75.3859 69.0224 75.5611C69.0111 75.8704 68.779 76.0262 68.3264 76.0285C68.2399 76.0285 68.1205 76.0285 67.9681 76.0285C67.8157 76.0285 67.6588 76.0285 67.4972 76.0285C67.338 76.0285 67.1868 76.0285 67.0434 76.0285C66.9024 76.0285 66.783 76.0285 66.6852 76.0285H66.5487L66.7944 75.5167C67.4995 75.519 67.959 75.5224 68.1728 75.5269C68.3821 75.5292 68.4879 75.4632 68.4902 75.329L68.497 75.271C68.4993 75.1937 68.4788 75.138 68.4356 75.1038C68.3923 75.0674 68.3252 75.0481 68.2343 75.0458C68.0546 75.0458 67.8783 75.0447 67.7054 75.0424ZM70.7474 74.5443C71.2751 74.5465 71.6061 74.5477 71.7403 74.5477C71.8335 74.5477 71.9006 74.534 71.9416 74.5067C71.9848 74.4772 72.0053 74.4248 72.003 74.3498L71.9962 74.2918C71.9962 74.219 71.9757 74.1701 71.9348 74.145C71.8938 74.12 71.8256 74.1087 71.73 74.1109C71.6845 74.1132 71.5367 74.1143 71.2865 74.1143C71.0385 74.1121 70.9111 74.1109 70.9043 74.1109C70.7747 74.1109 70.6632 74.1121 70.5699 74.1143C70.5699 74.1917 70.5699 74.2929 70.5699 74.418C70.5699 74.5408 70.5699 74.6694 70.5699 74.8036C70.5699 74.9378 70.5699 75.0777 70.5699 75.2233C70.5699 75.3666 70.5699 75.5076 70.5699 75.6464V75.9227V76.0012V76.0285H70.0615V76.0012V75.9227V75.6464C70.0615 75.5076 70.0615 75.3666 70.0615 75.2233C70.0615 75.0777 70.0615 74.9378 70.0615 74.8036C70.0615 74.6739 70.0615 74.5363 70.0615 74.3907C70.0615 74.2451 70.0615 74.103 70.0615 73.9642V73.6844V73.6094V73.5821H70.5699C71.2046 73.5821 71.6345 73.5832 71.8597 73.5855C72.2987 73.59 72.5228 73.7504 72.5319 74.0666C72.5364 74.2417 72.5398 74.3998 72.5421 74.5408C72.5421 74.7069 72.4807 74.8297 72.3579 74.9093C72.235 74.989 72.0769 75.0288 71.8836 75.0288L71.1739 75.0424L70.7474 74.5443ZM72.6535 73.5821H73.2267C73.2768 73.6867 73.3279 73.7913 73.3802 73.896L73.7863 74.7183L74.0558 75.2608L74.322 74.7183L74.7246 73.896L74.8781 73.5786H75.448C75.3911 73.6924 75.3592 73.7561 75.3524 73.7697C75.341 73.7902 75.3285 73.8164 75.3149 73.8482L75.3115 73.8516V73.855L75.3081 73.8584L75.3047 73.8618V73.8653L75.3012 73.8687V73.8755L75.2978 73.8789V73.8823L75.2944 73.8857V73.8891L75.291 73.8926L75.2876 73.896V73.8994V73.9028L75.2842 73.9062V73.9096L75.2808 73.913V73.9164L75.2774 73.9199V73.9233L75.2739 73.9267V73.9301L75.2705 73.9335V73.9369L75.2671 73.9403V73.9437L75.2637 73.9471V73.9506L75.2603 73.954V73.9574L75.2569 73.9608V73.9642L75.2535 73.9676V73.971L75.2501 73.9744V73.9779L75.2466 73.9813V73.9847L75.2432 73.9881V73.9915V73.9949H75.2398V73.9983V74.0017H75.2364V74.0052V74.0086L75.233 74.012L75.2296 74.0154V74.0188V74.0222H75.2262V74.0256V74.029L75.2228 74.0324V74.0359H75.2193V74.0393V74.0427L75.2159 74.0461V74.0495H75.2125V74.0529V74.0563L75.2091 74.0597V74.0632L75.2057 74.0666V74.07L75.2023 74.0734V74.0768L75.1989 74.0802V74.0836L75.1955 74.087V74.0905L75.1921 74.0939V74.0973L75.1886 74.1007V74.1041L75.1852 74.1075V74.1109L75.1818 74.1143V74.1178L74.7792 74.9401L74.3766 75.7624C74.3288 75.8624 74.2867 75.95 74.2503 76.0251V76.0285H73.8648C73.8306 75.958 73.7874 75.8693 73.7351 75.7624L73.3291 74.9401L72.923 74.1212L72.7866 73.8482V73.8448L72.7831 73.838L72.7797 73.8346L72.7763 73.8277V73.8243L72.7729 73.8209L72.7695 73.8175V73.8107L72.7661 73.8073V73.8038L72.7627 73.8004V73.797L72.7593 73.7936V73.7902L72.7558 73.7868V73.7834L72.7524 73.78L72.749 73.7731C72.6876 73.6457 72.6558 73.5821 72.6535 73.5821ZM75.5728 73.5821H75.6001H75.6752H75.9448C76.0812 73.5821 76.22 73.5821 76.361 73.5821C76.5043 73.5821 76.6397 73.5821 76.7671 73.5821C76.8967 73.5821 77.0321 73.5821 77.1731 73.5821C77.3141 73.5821 77.4518 73.5821 77.586 73.5821H77.8555H77.9306H77.9579V74.0905H77.9306H77.8555H77.586C77.5041 74.0905 77.3141 74.0905 77.0161 74.0905C77.0161 74.3134 77.0161 74.5522 77.0161 74.807C77.0161 75.1118 77.0161 75.3916 77.0161 75.6464C77.0139 75.6941 77.0127 75.7419 77.0127 75.7897C77.0127 75.8374 77.0127 75.8818 77.0127 75.9227V76.0012V76.0285H76.5043V76.0012V75.9227C76.5043 75.8818 76.5043 75.8374 76.5043 75.7897C76.5043 75.7419 76.5055 75.6941 76.5077 75.6464C76.5077 75.3916 76.5077 75.1107 76.5077 74.8036C76.5077 74.5238 76.5077 74.2861 76.5077 74.0905C76.228 74.0905 76.0403 74.0905 75.9448 74.0905H75.6752H75.6001H75.5728V73.5821ZM79.4938 73.5821V73.6094V73.6878V73.9642C79.4938 74.103 79.4938 74.2451 79.4938 74.3907C79.4938 74.5363 79.4938 74.6739 79.4938 74.8036C79.4938 74.9423 79.4938 75.0754 79.4938 75.2028C79.4938 75.3302 79.4938 75.4359 79.4938 75.5201C79.5825 75.5201 79.6906 75.5201 79.8179 75.5201C79.9476 75.5201 80.0818 75.5201 80.2206 75.5201C80.3548 75.5201 80.4947 75.5201 80.6403 75.5201C80.7858 75.5201 80.9291 75.5201 81.0702 75.5201H81.35H81.4284H81.4557V76.0285H81.4284H81.35H81.0702C80.9291 76.0285 80.7847 76.0285 80.6368 76.0285C80.4913 76.0285 80.3514 76.0285 80.2172 76.0285C80.0807 76.0285 79.9476 76.0285 79.8179 76.0285C79.6906 76.0285 79.5825 76.0285 79.4938 76.0285H78.9854H78.982V75.5201H78.9854C78.9854 75.4359 78.9854 75.3302 78.9854 75.2028C78.9854 75.0754 78.9854 74.9423 78.9854 74.8036C78.9854 74.6739 78.9854 74.5363 78.9854 74.3907C78.9854 74.2451 78.9854 74.103 78.9854 73.9642V73.6878V73.6094V73.5821H79.4938ZM81.581 73.5821H81.6083H81.6834H81.9529C82.0894 73.5821 82.2281 73.5821 82.3692 73.5821C82.5125 73.5821 82.6478 73.5821 82.7752 73.5821C82.9049 73.5821 83.0402 73.5821 83.1813 73.5821C83.3223 73.5821 83.4599 73.5821 83.5941 73.5821H83.8637H83.9387H83.966V74.0905H83.9387H83.8637H83.5941C83.5122 74.0905 83.3223 74.0905 83.0243 74.0905C83.0243 74.3134 83.0243 74.5522 83.0243 74.807C83.0243 75.1118 83.0243 75.3916 83.0243 75.6464C83.022 75.6941 83.0209 75.7419 83.0209 75.7897C83.0209 75.8374 83.0209 75.8818 83.0209 75.9227V76.0012V76.0285H82.5125V76.0012V75.9227C82.5125 75.8818 82.5125 75.8374 82.5125 75.7897C82.5125 75.7419 82.5136 75.6941 82.5159 75.6464C82.5159 75.3916 82.5159 75.1107 82.5159 74.8036C82.5159 74.5238 82.5159 74.2861 82.5159 74.0905C82.2361 74.0905 82.0484 74.0905 81.9529 74.0905H81.6834H81.6083H81.581V73.5821ZM84.3391 73.5821H84.3562H84.4074H84.5848C84.6758 73.5821 84.7679 73.5821 84.8612 73.5821C84.9544 73.5821 85.0431 73.5821 85.1273 73.5821C85.216 73.5821 85.3059 73.5821 85.3969 73.5821C85.4901 73.5821 85.5811 73.5821 85.6698 73.5821H85.8507H85.8984H85.9189C86.1395 73.5821 86.301 73.631 86.4034 73.7288C86.508 73.8243 86.5592 73.9926 86.557 74.2338V74.2474V74.2815C86.557 74.302 86.557 74.3236 86.557 74.3464C86.557 74.3668 86.557 74.3884 86.557 74.4112C86.557 74.5317 86.5558 74.6637 86.5535 74.807C86.5535 74.948 86.5535 75.0788 86.5535 75.1994C86.5535 75.2221 86.5535 75.2449 86.5535 75.2676C86.5535 75.2881 86.5535 75.3086 86.5535 75.329V75.3632V75.3768C86.5535 75.4905 86.5456 75.5849 86.5297 75.66C86.5137 75.7328 86.4853 75.7988 86.4444 75.8579C86.4034 75.917 86.3443 75.9603 86.2669 75.9876C86.1896 76.0149 86.0918 76.0285 85.9735 76.0285H85.4207L84.926 75.5167C85.2604 75.5167 85.5948 75.5178 85.9291 75.5201C85.9314 75.5201 85.9337 75.5201 85.936 75.5201C85.9769 75.5201 86.0053 75.511 86.0213 75.4928C86.0372 75.4723 86.0451 75.4325 86.0451 75.3734C86.0451 75.3688 86.0451 75.3654 86.0451 75.3632V75.329C86.0451 75.3086 86.0451 75.2869 86.0451 75.2642C86.0451 75.2415 86.0451 75.2198 86.0451 75.1994L86.0486 74.8036C86.0486 74.6603 86.0486 74.5295 86.0486 74.4112C86.0486 74.3884 86.0486 74.3668 86.0486 74.3464C86.0486 74.3236 86.0486 74.302 86.0486 74.2815V74.2474V74.2372C86.0417 74.1439 85.9974 74.095 85.9155 74.0905H85.9121H85.8984H85.8507H85.6698C85.5811 74.0905 85.4901 74.0905 85.3969 74.0905C85.3059 74.0905 85.216 74.0905 85.1273 74.0905H84.6155C84.6155 74.1769 84.6155 74.2838 84.6155 74.4112C84.6155 74.5386 84.6155 74.6694 84.6155 74.8036C84.6155 74.9287 84.6155 75.0936 84.6155 75.2983C84.6155 75.5008 84.6155 75.6668 84.6155 75.7965C84.6155 75.9239 84.6155 75.9921 84.6155 76.0012V76.0285H84.1071V76.0012V75.9227V75.6464C84.1071 75.5076 84.1071 75.3666 84.1071 75.2233C84.1071 75.08 84.1071 74.9401 84.1071 74.8036C84.1071 74.6739 84.1071 74.5363 84.1071 74.3907C84.1071 74.2451 84.1071 74.103 84.1071 73.9642V73.6878V73.6094V73.5821H84.3391ZM87.2116 75.5099V75.5303V75.5918C87.2116 75.6213 87.2116 75.652 87.2116 75.6839C87.2116 75.7135 87.2116 75.7419 87.2116 75.7692C87.2116 75.7965 87.2116 75.8261 87.2116 75.8579C87.2116 75.8875 87.2116 75.917 87.2116 75.9466V76.0046V76.0285H86.7032V76.0046V75.9466C86.7032 75.917 86.7032 75.8875 86.7032 75.8579C86.7032 75.8261 86.7032 75.7965 86.7032 75.7692C86.7032 75.7419 86.7032 75.7123 86.7032 75.6805C86.7032 75.6486 86.7032 75.6179 86.7032 75.5883V75.5303V75.5099H87.2116Z" fill="#2D539E"/>
<defs>
<filter id="filter0_i_153_1406" x="11.3363" y="23.8463" width="31.5976" height="32.5311" filterUnits="userSpaceOnUse" color-interpolation-filters="sRGB">
<feFlood flood-opacity="0" result="BackgroundImageFix"/>
<feBlend mode="normal" in="SourceGraphic" in2="BackgroundImageFix" result="shape"/>
<feColorMatrix in="SourceAlpha" type="matrix" values="0 0 0 0 0 0 0 0 0 0 0 0 0 0 0 0 0 0 127 0" result="hardAlpha"/>
<feOffset dx="0.947794" dy="0.568676"/>
<feGaussianBlur stdDeviation="0.710845"/>
<feComposite in2="hardAlpha" operator="arithmetic" k2="-1" k3="1"/>
<feColorMatrix type="matrix" values="0 0 0 0 0 0 0 0 0 0 0 0 0 0 0 0 0 0 0.5 0"/>
<feBlend mode="normal" in2="shape" result="effect1_innerShadow_153_1406"/>
</filter>
<filter id="filter1_i_153_1406" x="36.0246" y="64.4848" width="9.95865" height="10.5285" filterUnits="userSpaceOnUse" color-interpolation-filters="sRGB">
<feFlood flood-opacity="0" result="BackgroundImageFix"/>
<feBlend mode="normal" in="SourceGraphic" in2="BackgroundImageFix" result="shape"/>
<feColorMatrix in="SourceAlpha" type="matrix" values="0 0 0 0 0 0 0 0 0 0 0 0 0 0 0 0 0 0 127 0" result="hardAlpha"/>
<feOffset dx="0.101506" dy="0.304519"/>
<feGaussianBlur stdDeviation="0.761298"/>
<feComposite in2="hardAlpha" operator="arithmetic" k2="-1" k3="1"/>
<feColorMatrix type="matrix" values="0 0 0 0 0 0 0 0 0 0 0 0 0 0 0 0 0 0 0.3 0"/>
<feBlend mode="normal" in2="shape" result="effect1_innerShadow_153_1406"/>
</filter>
<linearGradient id="paint0_linear_153_1406" x1="9.69487" y1="31.345" x2="77.6254" y2="35.2814" gradientUnits="userSpaceOnUse">
<stop stop-color="#412979"/>
<stop offset="1" stop-color="#1C75BC"/>
</linearGradient>
<linearGradient id="paint1_linear_153_1406" x1="39.4651" y1="32.9532" x2="86.4253" y2="5.4942" gradientUnits="userSpaceOnUse">
<stop stop-color="#412979"/>
<stop offset="1" stop-color="#1C75BC"/>
</linearGradient>
<linearGradient id="paint2_linear_153_1406" x1="30.959" y1="55.8088" x2="22.3633" y2="23.8463" gradientUnits="userSpaceOnUse">
<stop stop-color="#2662AB"/>
<stop offset="1" stop-color="#3F2D7D"/>
</linearGradient>
</defs>
</svg>
